<svg width="80" height="80" viewBox="0 0 80 80" fill="none" xmlns="http://www.w3.org/2000/svg">
<path opacity="0.4" d="M6.66699 32.5C5.30033 32.5 4.16699 31.3667 4.16699 30V21.6667C4.16699 12 12.0337 4.16667 21.667 4.16667H30.0003C31.367 4.16667 32.5003 5.30001 32.5003 6.66667C32.5003 8.03334 31.367 9.16667 30.0003 9.16667H21.667C14.767 9.16667 9.16699 14.7667 9.16699 21.6667V30C9.16699 31.3667 8.03366 32.5 6.66699 32.5Z" fill="#0D9488"/>
<path d="M73.3333 32.5C71.9667 32.5 70.8333 31.3667 70.8333 30V21.6667C70.8333 14.7667 65.2333 9.16667 58.3333 9.16667H50C48.6333 9.16667 47.5 8.03334 47.5 6.66667C47.5 5.30001 48.6333 4.16667 50 4.16667H58.3333C67.9667 4.16667 75.8333 12 75.8333 21.6667V30C75.8333 31.3667 74.7 32.5 73.3333 32.5Z" fill="#0D9488"/>
<path opacity="0.4" d="M58.333 75.8333H53.333C51.9663 75.8333 50.833 74.7 50.833 73.3333C50.833 71.9667 51.9663 70.8333 53.333 70.8333H58.333C65.233 70.8333 70.833 65.2333 70.833 58.3333V53.3333C70.833 51.9667 71.9663 50.8333 73.333 50.8333C74.6997 50.8333 75.833 51.9667 75.833 53.3333V58.3333C75.833 68 67.9663 75.8333 58.333 75.8333Z" fill="#0D9488"/>
<path d="M30.0003 75.8333H21.667C12.0337 75.8333 4.16699 68 4.16699 58.3333V50C4.16699 48.6333 5.30033 47.5 6.66699 47.5C8.03366 47.5 9.16699 48.6333 9.16699 50V58.3333C9.16699 65.2333 14.767 70.8333 21.667 70.8333H30.0003C31.367 70.8333 32.5003 71.9667 32.5003 73.3333C32.5003 74.7 31.367 75.8333 30.0003 75.8333Z" fill="#0D9488"/>
<path d="M30 17.5H23.3333C19.5333 17.5 17.5 19.5 17.5 23.3333V30C17.5 33.8333 19.5333 35.8333 23.3333 35.8333H30C33.8 35.8333 35.8333 33.8333 35.8333 30V23.3333C35.8333 19.5 33.8 17.5 30 17.5Z" fill="#19647E"/>
<path opacity="0.4" d="M56.667 17.5H50.0003C46.2003 17.5 44.167 19.5 44.167 23.3333V30C44.167 33.8333 46.2003 35.8333 50.0003 35.8333H56.667C60.467 35.8333 62.5003 33.8333 62.5003 30V23.3333C62.5003 19.5 60.467 17.5 56.667 17.5Z" fill="#119DA4"/>
<path opacity="0.4" d="M30 44.1667H23.3333C19.5333 44.1667 17.5 46.1667 17.5 50V56.6667C17.5 60.5 19.5333 62.5 23.3333 62.5H30C33.8 62.5 35.8333 60.5 35.8333 56.6667V50C35.8333 46.1667 33.8 44.1667 30 44.1667Z" fill="#4B3F72"/>
<path d="M56.667 44.1667H50.0003C46.2003 44.1667 44.167 46.1667 44.167 50V56.6667C44.167 60.5 46.2003 62.5 50.0003 62.5H56.667C60.467 62.5 62.5003 60.5 62.5003 56.6667V50C62.5003 46.1667 60.467 44.1667 56.667 44.1667Z" fill="#FFC857"/>
</svg>
